<?xml version="1.0" encoding="utf-8"?>
<!-- Generator: Adobe Illustrator 12.0.0, SVG Export Plug-In . SVG Version: 6.00 Build 51448)  -->
<!DOCTYPE svg PUBLIC "-//W3C//DTD SVG 1.1//EN" "http://www.w3.org/Graphics/SVG/1.1/DTD/svg11.dtd" [
	<!ENTITY ns_svg "http://www.w3.org/2000/svg">
	<!ENTITY ns_xlink "http://www.w3.org/1999/xlink">
]>
<svg  version="1.1" id="Layer_1" xmlns="&ns_svg;" xmlns:xlink="&ns_xlink;" width="218.17" height="213.12"
	 viewBox="0 0 218.17 213.12" overflow="visible" enable-background="new 0 0 218.17 213.12" xml:space="preserve">
<g>
	<g>
		<path fill-rule="evenodd" clip-rule="evenodd" fill="#151515" d="M58.331,113.76c0.018-0.418-0.054-0.746-0.24-0.96
			c0.55-4.888-1.806-8.511-7.2-7.919c-4.148,0.455-9.778,3.551-12.24,7.44c-5.107,8.065-0.171,19.944,6.72,22.32
			c1.465,0.505,3.143,0.303,5.04,0.96c1.973,2.907,3.27,6.49,4.56,10.08c-7.024-2.086-10.616-6.019-14.64-10.32
			c-6.897-7.374-11.798-16.996-10.8-29.76c0.747-9.552,3.309-16.773,6.48-24.24c0.93-2.188,2.441-4.588,3.12-6.96
			c0.902-3.15,0.99-5.055,2.16-7.2c3.149-5.774,8.623-9.417,13.68-14.16c6.538-6.131,14.058-11.227,20.88-16.32
			c1.145,0.061,1.57,1.807,3.12,1.92c0.822,0.06,3.489-1.138,5.04-1.68c10.907-3.813,23.611-7.861,35.76-10.08
			c32.02-5.847,66.005,2.639,63.36,36.96c-1.243,16.135-7.75,26.008-15.84,36.48c-0.925-2.935-2.295-6.015-4.08-10.32
			c-0.892-2.151-2.848-9.53-4.8-9.36c-2.74,0.239-0.963,6.063-1.2,8.88c-13.624-5.63-36.234-5.635-51.84-0.48
			c-11.005,3.636-21.104,8.69-32.64,12.24c-4.023,1.238-9.069,1.771-10.8,4.08c-0.599,0.799-0.722,2.554-1.44,4.32
			C59.718,111.579,58.667,112.157,58.331,113.76z"/>
		<path fill-rule="evenodd" clip-rule="evenodd" fill="#151515" d="M121.21,88.8c1.046-0.399,3.754-0.399,4.8,0
			C124.411,88.8,122.81,88.8,121.21,88.8z"/>
		<path fill-rule="evenodd" clip-rule="evenodd" fill="#151515" d="M137.291,90c1.12,0,2.24,0,3.36,0
			C140.08,90.398,137.861,90.398,137.291,90z"/>
		<path fill-rule="evenodd" clip-rule="evenodd" fill="#151515" d="M140.89,90c1.204,0.156,3.035-0.314,3.841,0.24
			C143.527,90.084,141.696,90.555,140.89,90z"/>
		<path fill-rule="evenodd" clip-rule="evenodd" fill="#936342" d="M47.291,111.36c3.208-3.661,7.624-0.273,10.8,1.439
			c0.187,0.214,0.258,0.542,0.24,0.96c-0.776,4.345-1.958,8.282-2.16,13.2c-0.399,1.126-0.399,3.915,0,5.04
			c0.024,4.696,1.143,8.297,1.44,12.721c-1.959-4.281-3.733-8.747-5.52-13.2c-1.488,0.741-3.614,1.772-5.52,0.72
			c-0.7-0.9-1.5-1.7-2.4-2.4c-4.114-4.021-4.836-13.36,0.72-16.319C45.656,112.766,46.679,112.269,47.291,111.36z"/>
		<path fill-rule="evenodd" clip-rule="evenodd" fill="#936342" d="M143.771,109.681c0.52-0.041,0.108,0.851,0.239,1.199
			c0,0.16,0,0.32,0,0.48c-0.131,0.349,0.28,1.24-0.239,1.2C143.771,111.601,143.771,110.641,143.771,109.681z"/>
		<path fill-rule="evenodd" clip-rule="evenodd" fill="#936342" d="M130.81,114c0.08,0,0.16,0,0.24,0c0,0.88,0,1.76,0,2.641
			c-0.08,0-0.16,0-0.24,0C130.81,115.76,130.81,114.88,130.81,114z"/>
		<path fill-rule="evenodd" clip-rule="evenodd" fill="#151515" d="M56.17,126.96c0,1.681,0,3.36,0,5.04
			C55.771,130.875,55.771,128.086,56.17,126.96z"/>
		<path fill-rule="evenodd" clip-rule="evenodd" fill="#151515" d="M60.01,129.12c0,0.96,0,1.92,0,2.88
			C59.612,131.586,59.612,129.534,60.01,129.12z"/>
		<path fill-rule="evenodd" clip-rule="evenodd" fill="#151515" d="M122.89,134.4c0.259-0.397,2.142-0.397,2.4,0
			C124.491,134.4,123.691,134.4,122.89,134.4z"/>
		<path fill-rule="evenodd" clip-rule="evenodd" fill="#151515" d="M191.531,138.24c0.545,0.255,0.091,1.509,0.24,2.16
			c-0.014,0.146-0.036,0.284-0.24,0.24C191.531,139.84,191.531,139.04,191.531,138.24z"/>
		<path fill-rule="evenodd" clip-rule="evenodd" fill="#151515" d="M131.05,149.761c0.568-0.553,2.154-0.086,3.12-0.24
			C133.602,150.072,132.016,149.606,131.05,149.761z"/>
		<path fill-rule="evenodd" clip-rule="evenodd" fill="#151515" d="M134.89,149.521c0.399,1.205,0.399,4.075,0,5.28
			C134.89,153.04,134.89,151.28,134.89,149.521z"/>
		<path fill-rule="evenodd" clip-rule="evenodd" fill="#151515" d="M126.731,150c0.567-0.552,2.153-0.086,3.119-0.239
			C129.283,150.313,127.697,149.847,126.731,150z"/>
		<path fill-rule="evenodd" clip-rule="evenodd" fill="#151515" d="M122.17,150.24c0.727-0.554,2.476-0.085,3.6-0.24
			C125.044,150.554,123.295,150.085,122.17,150.24z"/>
		<path fill-rule="evenodd" clip-rule="evenodd" fill="#151515" d="M116.411,150.48c1.203-0.557,3.438-0.083,5.04-0.24
			C120.248,150.797,118.013,150.322,116.411,150.48z"/>
		<path fill-rule="evenodd" clip-rule="evenodd" fill="#151515" d="M106.331,181.2c2.241,0.159,5.118-0.318,6.96,0.24
			C111.049,181.281,108.172,181.759,106.331,181.2z"/>
		<path fill-rule="evenodd" clip-rule="evenodd" fill="#151515" d="M129.13,181.44c0.333-0.547,1.671-0.09,2.4-0.24
			C131.198,181.748,129.86,181.29,129.13,181.44z"/>
		<path fill-rule="evenodd" clip-rule="evenodd" fill="#151515" d="M115.93,181.44c3.92,0,7.84,0,11.761,0
			C124.33,181.84,119.292,181.84,115.93,181.44z"/>
		<path fill-rule="evenodd" clip-rule="evenodd" fill="#151515" d="M134.651,186c0.41-0.549,1.832-0.088,2.64-0.239
			C136.879,186.31,135.458,185.849,134.651,186z"/>
		<path fill-rule="evenodd" clip-rule="evenodd" fill="#936342" d="M137.291,185.761c0.8,0,1.6,0,2.4,0
			c-3.188,0.255-7.653,1.692-10.08,0.479c1.778,0.02,3.574,0.055,5.04-0.24C135.458,185.849,136.879,186.31,137.291,185.761z"/>
		<path fill-rule="evenodd" clip-rule="evenodd" fill="#936342" d="M122.17,186.721c0.647-0.554,2.314-0.086,3.36-0.24
			C124.883,187.033,123.215,186.565,122.17,186.721z"/>
		<path fill-rule="evenodd" clip-rule="evenodd" fill="#AFAFAF" d="M52.09,51.12c0.78-0.98,1.66-1.86,2.64-2.64
			C53.951,49.46,53.071,50.34,52.09,51.12z"/>
		<path fill-rule="evenodd" clip-rule="evenodd" fill="#936342" d="M49.69,53.52c0.699-0.9,1.5-1.7,2.4-2.4
			C51.391,52.021,50.591,52.821,49.69,53.52z"/>
		<path fill-rule="evenodd" clip-rule="evenodd" fill="#DFDFDE" d="M35.53,67.2c0.7-0.9,1.5-1.701,2.4-2.4
			c-0.162,0.558-0.797,0.642-0.96,1.2C36.226,66.136,36.339,67.129,35.53,67.2z"/>
		<path fill-rule="evenodd" clip-rule="evenodd" fill="#DFDFDE" d="M32.65,70.32c0.545-1.294,1.695-1.985,2.64-2.88
			C34.5,68.489,33.702,69.531,32.65,70.32z"/>
		<path fill-rule="evenodd" clip-rule="evenodd" fill="#AFAFAF" d="M191.531,134.16c2.726,1.77,2.795,3.705,3.84,7.44
			c0.46,1.643,1.469,3.21,1.44,4.319c-0.042,1.585-1.223,2.604-1.681,3.841c-2.084,5.625-3.676,9.718-6.72,13.92
			c-5.637,7.78-12.064,14.042-21.12,19.68c-4.185,2.605-8.897,5.978-13.2,7.2c-5.544,1.575-11.657,2.185-17.76,2.88
			c-12.95,1.476-25.604,2.64-36.48-0.96c-2.226-0.736-4.799-1.863-7.44-2.88c-2.349-0.905-5.802-2.729-7.68-2.641
			c-1.482,0.07-2.81,1.766-4.32,1.681c-4.138-0.232-7.279-8.763-9.36-11.28c-2.92-3.879-5.108-8.492-6.72-13.68
			c1.428,2.425,3.168,5.719,5.52,9.12c2.139,3.093,5.849,10.275,9.6,6c1.067,0.263,1.75-0.58,2.4,0
			c6.189,1.653,12.208,5.333,19.2,6.72c7.227,1.433,14.32,0.909,21.12,1.2c1.045-0.155,2.713,0.313,3.36-0.24
			c1.609,0.169,2.633-0.247,4.08-0.24c2.427,1.213,6.892-0.225,10.08-0.479c1.824-0.256,3.732-0.428,5.76-0.48
			c0.974-0.387,1.106-1.613,1.92-2.16c11.646-4.194,21.363-10.316,29.04-18.479c0.9-0.7,1.7-1.5,2.4-2.4
			c5.489-5.95,10.617-12.263,12.72-21.6c0.204,0.044,0.227-0.094,0.24-0.24C193.536,139.078,192.488,135.541,191.531,134.16z"/>
		<path fill-rule="evenodd" clip-rule="evenodd" fill="#151515" d="M170.17,102.72c0.779-0.98,1.66-1.86,2.641-2.64
			C172.031,101.061,171.151,101.94,170.17,102.72z"/>
		<path fill-rule="evenodd" clip-rule="evenodd" fill="#AFAFAF" d="M172.811,114c-2.571-2.229-4.854-4.746-6.721-7.68
			c0.99-1.57,2.883-2.238,4.08-3.6c0.98-0.78,1.86-1.66,2.641-2.64c6.08-6.803,10.854-16.589,13.199-27.84
			c0.754-3.618,2.224-7.645,2.4-11.04c0.216-4.141-1.745-8.366-1.44-12.72c1.38,1.82,2.167,4.233,3.601,6
			c-0.096,5.33,1.668,9.859,1.68,14.4c0.009,3.553-1.696,8.588-2.64,13.2c-1.962,9.592-5.118,15.749-10.08,22.56
			c-0.926,1.271-1.86,2.758-3.601,4.56C174.625,110.553,170.617,112.723,172.811,114z"/>
		<path fill-rule="evenodd" clip-rule="evenodd" fill="#151515" d="M183.371,130.8c1.03,0.811,1.883,1.798,2.88,2.641
			C185.012,132.839,184.226,131.785,183.371,130.8z"/>
		<path fill-rule="evenodd" clip-rule="evenodd" fill="#151515" d="M176.651,123.36c1.3,1.1,2.5,2.3,3.6,3.6
			C178.951,125.86,177.75,124.66,176.651,123.36z"/>
		<path fill-rule="evenodd" clip-rule="evenodd" fill="#151515" d="M174.01,121.2c0.948,0.572,1.785,1.255,2.4,2.16
			C175.621,122.631,174.706,122.025,174.01,121.2z"/>
		<path fill-rule="evenodd" clip-rule="evenodd" fill="#151515" d="M155.531,93.36c1.623,0.857,2.931,2.029,3.84,3.6
			C158.27,95.581,156.913,94.458,155.531,93.36z"/>
		<path fill-rule="evenodd" clip-rule="evenodd" fill="#151515" d="M110.651,92.16c0.493-0.547,2.072-0.007,2.64-0.48
			C112.964,92.394,111.632,92.102,110.651,92.16z"/>
		<path fill-rule="evenodd" clip-rule="evenodd" fill="#151515" d="M60.25,137.521c0.368,0.992,0.44,2.279,0.48,3.6
			C60.342,140.148,60.24,138.891,60.25,137.521z"/>
		<path fill-rule="evenodd" clip-rule="evenodd" fill="#936342" d="M36.97,66c0.163-0.558,0.798-0.642,0.96-1.2
			c0.632-0.249,0.809-0.952,1.44-1.2C38.671,64.5,37.871,65.301,36.97,66z"/>
		<path fill-rule="evenodd" clip-rule="evenodd" fill="#936342" d="M42.97,60.24c2.06-2.26,4.22-4.42,6.48-6.48
			C47.391,56.02,45.23,58.18,42.97,60.24z"/>
		<path fill-rule="evenodd" clip-rule="evenodd" fill="#151515" d="M44.89,113.521c0.572-0.948,1.55-1.49,2.4-2.16
			C46.679,112.269,45.656,112.766,44.89,113.521z"/>
		<path fill-rule="evenodd" clip-rule="evenodd" fill="#151515" d="M44.17,129.84c0.9,0.7,1.7,1.5,2.4,2.4
			C45.67,131.541,44.87,130.741,44.17,129.84z"/>
		<path fill-rule="evenodd" clip-rule="evenodd" d="M182.411,150.96c3.794-3.565,4.658-10.062,6-16.08
			c1.523,0.638,2.916,1.404,3.12,3.36c0,0.8,0,1.6,0,2.4c-2.103,9.337-7.23,15.649-12.72,21.6c-0.901,0.699-1.701,1.5-2.4,2.4
			c-7.677,8.163-17.395,14.285-29.04,18.479c-0.813,0.547-0.946,1.773-1.92,2.16c-2.027,0.053-3.936,0.225-5.76,0.48
			c-0.801,0-1.601,0-2.4,0c-0.808,0.151-2.229-0.31-2.64,0.239c-1.466,0.295-3.262,0.26-5.04,0.24
			c-1.447-0.007-2.471,0.409-4.08,0.24c-1.046,0.154-2.713-0.313-3.36,0.24c-6.8-0.291-13.894,0.232-21.12-1.2
			c-6.992-1.387-13.01-5.066-19.2-6.72c-0.837-2.92,3.288-1.403,5.52-0.96c6.029,1.194,13.657,2.739,18.96,3.359
			c1.842,0.559,4.719,0.081,6.96,0.24c0.88,0,1.76,0,2.64,0c3.361,0.399,8.399,0.399,11.761,0c0.479,0,0.96,0,1.439,0
			c0.729-0.15,2.067,0.308,2.4-0.24c1.137,0.097,1.651-0.429,2.88-0.24c0.993,0.034,1.854-0.065,2.399-0.479
			c11.241-2.199,20.124-6.756,27.841-12.48c0.85-0.669,1.828-1.211,2.399-2.16c0.978-0.463,1.226-1.654,2.4-1.92
			C173.871,159.7,178.191,155.38,182.411,150.96z"/>
		<path fill-rule="evenodd" clip-rule="evenodd" fill="#151515" d="M169.451,163.92c4.22-4.42,8.54-8.739,12.96-12.96
			C178.191,155.38,173.871,159.7,169.451,163.92z"/>
		<path fill-rule="evenodd" clip-rule="evenodd" fill="#151515" d="M164.651,168c0.611-0.908,1.634-1.405,2.399-2.16
			C166.479,166.789,165.5,167.331,164.651,168z"/>
		<path fill-rule="evenodd" clip-rule="evenodd" fill="#151515" d="M134.411,180.96c0.588-0.372,1.562-0.357,2.399-0.479
			C136.264,180.895,135.404,180.994,134.411,180.96z"/>
		<path fill-rule="evenodd" clip-rule="evenodd" fill="#936342" d="M113.291,91.68c2.34-1.26,4.748-2.452,7.92-2.88
			c1.6,0,3.2,0,4.8,0c3.81,0.351,7.121,1.199,11.28,1.2c0.57,0.398,2.789,0.398,3.36,0c0.08,0,0.16,0,0.239,0
			c0.806,0.555,2.637,0.084,3.841,0.24c4.184,0.457,7.688,1.592,10.8,3.12c1.382,1.097,2.739,2.22,3.84,3.6
			c1.383,11.577,6.493,19.427,14.64,24.24c0.695,0.825,1.61,1.431,2.4,2.16c0.08,0,0.16,0,0.24,0c1.1,1.3,2.3,2.5,3.6,3.6
			c0.829,1.492,2.174,2.466,3.12,3.84c0.855,0.985,1.642,2.039,2.88,2.641c0.921,0.872,3.547,0.937,5.04,0.479
			c0.204-0.044,0.227,0.094,0.24,0.24c0.957,1.381,2.005,4.918,0.24,6.24c-0.149-0.651,0.305-1.905-0.24-2.16
			c-0.204-1.956-1.597-2.723-3.12-3.36c-1.342,6.019-2.206,12.515-6,16.08c-4.42,4.221-8.74,8.54-12.96,12.96
			c-1.175,0.266-1.423,1.457-2.4,1.92c-0.766,0.755-1.788,1.252-2.399,2.16c-7.717,5.725-16.6,10.281-27.841,12.48
			c-0.838,0.122-1.812,0.107-2.399,0.479c-1.229-0.188-1.743,0.337-2.88,0.24c-0.729,0.15-2.067-0.307-2.4,0.24
			c-0.479,0-0.96,0-1.439,0c-3.921,0-7.841,0-11.761,0c-0.88,0-1.76,0-2.64,0c-1.842-0.559-4.719-0.081-6.96-0.24
			c-5.303-0.62-12.931-2.165-18.96-3.359c-2.232-0.443-6.357-1.96-5.52,0.96c-0.651-0.58-1.333,0.263-2.4,0
			c-8.821-9.979-15.95-21.65-18.72-37.681c-0.04-1.32-0.112-2.607-0.48-3.6c0.151-2.071-0.417-3.424-0.24-5.521
			c0-0.96,0-1.92,0-2.88c0.895-8.785,3.014-16.346,6.48-22.56c16.752-2.768,28.49-10.55,44.161-14.4
			C111.632,92.102,112.964,92.394,113.291,91.68z M144.97,125.04c1.882-2.516,4.351-8.935,3.841-14.16
			c-0.513-5.249-3.099-11.602-8.641-8.88c-0.08,0-0.16,0-0.24,0s-0.16,0-0.239,0c-0.329,0.551-0.988,0.772-1.44,1.2
			c-7.565-2.393-12.437,5.058-11.04,13.2c0.071,0.631-0.931,0.188-0.72,0.96c2.405,3.995,3.574,9.226,8.399,10.8
			c0.08,0,0.16,0,0.24,0c3.856,1.278,8.109-0.509,9.84-2.88C144.97,125.2,144.97,125.12,144.97,125.04z M86.411,107.52
			c-10.029,5.734-3.214,22.589,7.92,20.88c9.952-1.528,11.411-23.957,1.2-24.72c-3.944-0.295-4.768,2.653-8.4,3.6
			C86.8,107.27,86.604,107.393,86.411,107.52z M122.89,134.4c-2.41,0.069-3.958,1.002-6.239,1.2
			c0.357,7.55,10.906,3.224,11.04-0.721c-1.108,0.148-1.382-0.538-2.4-0.479C125.032,134.003,123.149,134.003,122.89,134.4z
			 M112.331,150.24c-1.927-0.608-1.271-3.521-3.6-3.36c-2.249,0.156-2.292,5.174-1.92,7.681c1.319,8.909,13.168,17.836,22.8,11.76
			c0.9-0.699,1.7-1.499,2.399-2.4c1.648-2.352,2.893-5.107,2.88-9.119c0.399-1.205,0.399-4.075,0-5.28c-0.239,0-0.479,0-0.72,0
			c-0.966,0.154-2.552-0.313-3.12,0.24c-0.399,0-0.8,0-1.2,0c-0.966,0.153-2.552-0.313-3.119,0.239c-0.32,0-0.641,0-0.961,0
			c-1.124,0.155-2.873-0.313-3.6,0.24c-0.24,0-0.479,0-0.72,0c-1.603,0.157-3.837-0.316-5.04,0.24c-0.32,0-0.641,0-0.96,0
			C114.343,150.467,113.104,150.587,112.331,150.24z"/>
		<path fill-rule="evenodd" clip-rule="evenodd" fill="#151515" d="M134.89,128.16c-4.825-1.574-5.994-6.805-8.399-10.8
			c-0.211-0.771,0.791-0.329,0.72-0.96c-1.396-8.143,3.475-15.593,11.04-13.2c0.452-0.428,1.111-0.649,1.44-1.2
			c0.079,0,0.159,0,0.239,0c-1.569,2.08-0.382,0.091,1.44,0c-0.203-0.703-0.772,0.144-1.2,0c5.542-2.722,8.128,3.631,8.641,8.88
			c0.51,5.226-1.959,11.645-3.841,14.16c0.125-0.354,0.355-0.604,0.48-0.96c-0.644,0.557-0.957,1.443-1.68,1.92
			c0.162,0.525,0.797-0.454,0.96-0.72c0.079,0,0.159,0,0.239,0c-1.73,2.371-5.983,4.158-9.84,2.88
			c-1.705-1.175-3.632-2.128-4.56-4.08C130.826,125.668,133.113,127.296,134.89,128.16z M128.89,107.28
			c0.801-0.719,1.298-1.742,2.16-2.4C129.933,105.018,128.781,107.494,128.89,107.28z M144.01,110.88
			c0.816-3.218-1.397-6.76-3.6-6.959c0.27,0.05,0.374,0.266,0.479,0.48c-0.479,0-0.96,0-1.439,0c-0.91,1.25,0.148,4.468-2.4,4.08
			c-1.138-0.063-0.626-1.774-1.92-1.68c-0.786,0.414-1.134,1.266-1.92,1.68c0.162-0.558,0.798-0.643,0.96-1.2
			c-1.206,0.092-3.548,4.507-2.4,3.36c-0.186,1.174-0.887,1.832-0.72,3.359c-0.08,0-0.16,0-0.24,0
			c-0.013-0.146-0.035-0.284-0.239-0.24c-0.319,0.708,0.024,4.408,0.239,2.881c0.08,0,0.16,0,0.24,0c0,0.319,0,0.64,0,0.96
			c-0.748,0.38,0.826,3.043,0.24,1.199c0.674,0.927,1.047,2.153,1.68,3.12c-0.126-0.014-0.56-0.299-0.479,0
			c0.475,1.775,2.854,3.365,4.08,3.36c1.896-0.008,3.838-2.703,4.8-4.08c0.585-0.836,2.213-4.127,1.68-3.36c-0.08,0-0.16,0-0.239,0
			c0.342-1.018,0.572-2.146,0.96-3.119c0.476,0.381,0.786-2.719,0.239-3.36C144.01,111.2,144.01,111.04,144.01,110.88z"/>
		<path fill-rule="evenodd" clip-rule="evenodd" d="M144.97,125.28c-0.08,0-0.16,0-0.239,0c-0.163,0.266-0.798,1.245-0.96,0.72
			c0.723-0.477,1.036-1.363,1.68-1.92c-0.125,0.355-0.355,0.605-0.48,0.96C144.97,125.12,144.97,125.2,144.97,125.28z"/>
		<path fill-rule="evenodd" clip-rule="evenodd" d="M134.89,128.16c-1.777-0.864-4.064-2.492-4.319-4.08
			c0.928,1.952,2.854,2.905,4.56,4.08C135.05,128.16,134.97,128.16,134.89,128.16z"/>
		<path fill-rule="evenodd" clip-rule="evenodd" d="M131.05,104.88c-0.862,0.658-1.359,1.681-2.16,2.4
			C128.781,107.494,129.933,105.018,131.05,104.88z"/>
		<path fill-rule="evenodd" clip-rule="evenodd" d="M140.17,102c0.428,0.144,0.997-0.703,1.2,0c-1.822,0.091-3.01,2.08-1.44,0
			C140.01,102,140.09,102,140.17,102z"/>
		<path fill-rule="evenodd" clip-rule="evenodd" fill="#151515" d="M87.13,107.28c3.632-0.947,4.456-3.895,8.4-3.6
			c10.211,0.763,8.752,23.192-1.2,24.72c-11.134,1.709-17.949-15.146-7.92-20.88c-0.583,1.017-1.877,1.324-2.4,2.4
			c1.255-0.744,1.83-2.17,3.6-2.4C87.604,107.287,87.317,107.334,87.13,107.28z M97.451,126.48c-2.26,2.448,3.165-2.252,2.4-2.88
			C99.05,125.294,97.979,125.908,97.451,126.48z M94.57,106.8c-0.324-0.076-0.458-0.342-0.96-0.24c0,0.32,0,0.64,0,0.96
			c-0.438,0.063-0.959,1.989,0,1.92c-2.093,0.227-3.782,0.857-5.04,1.92c-0.26-1.241-4.778,4.527-2.16,6.72
			c0.146,0.014,0.284,0.036,0.24,0.24c0.335,2.146,2.558,4.481,4.32,6c0.468-0.739,2.429-1.243,2.16-1.92
			c0.134-0.346,0.375-0.586,0.72-0.72c0.024,0.269-0.349,0.373,0,0.479c1.125-1.116,3.232-2.524,3.12-4.08
			c0.11-0.85,0.534-1.386,0.48-2.399C98.863,112.39,95.943,108.097,94.57,106.8z"/>
		<path fill-rule="evenodd" clip-rule="evenodd" d="M99.851,123.601c0.765,0.628-4.66,5.328-2.4,2.88
			C97.979,125.908,99.05,125.294,99.851,123.601z"/>
		<path fill-rule="evenodd" clip-rule="evenodd" d="M87.13,107.28c0.187,0.054,0.474,0.006,0.48,0.24
			c-1.77,0.23-2.345,1.656-3.6,2.4c0.523-1.076,1.817-1.383,2.4-2.4C86.604,107.393,86.8,107.27,87.13,107.28z"/>
		<path fill-rule="evenodd" clip-rule="evenodd" d="M131.77,110.641c-1.147,1.146,1.194-3.268,2.4-3.36
			c-0.162,0.558-0.798,0.643-0.96,1.2C132.722,109.192,132.335,110.005,131.77,110.641z"/>
		<path fill-rule="evenodd" clip-rule="evenodd" d="M130.81,114c0,0.88,0,1.76,0,2.641c-0.215,1.527-0.559-2.173-0.239-2.881
			C130.775,113.716,130.797,113.854,130.81,114z"/>
		<path fill-rule="evenodd" clip-rule="evenodd" d="M131.05,117.601c0.202,0.278,0.316,0.644,0.24,1.199
			C131.876,120.644,130.302,117.98,131.05,117.601z"/>
		<path fill-rule="evenodd" clip-rule="evenodd" d="M142.811,117.84c0.079,0,0.159,0,0.239,0c0.533-0.767-1.095,2.524-1.68,3.36
			c-0.962,1.377-2.904,4.072-4.8,4.08c-1.227,0.005-3.605-1.585-4.08-3.36c-0.08-0.299,0.354-0.014,0.479,0
			C136.069,128.087,141.44,121.738,142.811,117.84z"/>
		<path fill-rule="evenodd" clip-rule="evenodd" d="M140.89,104.4c-0.105-0.214-0.21-0.43-0.479-0.48
			c2.202,0.2,4.416,3.742,3.6,6.959c-0.131-0.349,0.28-1.24-0.239-1.199C143.893,106.838,142.587,105.423,140.89,104.4z"/>
		<path fill-rule="evenodd" clip-rule="evenodd" fill="#FFFFFF" d="M140.89,104.4c1.697,1.022,3.003,2.438,2.881,5.28
			c0,0.96,0,1.92,0,2.88c0,0.72,0,1.439,0,2.16c-0.388,0.973-0.618,2.102-0.96,3.119c-1.371,3.898-6.742,10.247-9.841,4.08
			c-0.633-0.967-1.006-2.193-1.68-3.12c0.076-0.556-0.038-0.921-0.24-1.199c0-0.32,0-0.641,0-0.96c0-0.881,0-1.761,0-2.641
			c-0.167-1.527,0.534-2.186,0.72-3.359c0.565-0.636,0.952-1.448,1.44-2.16c0.786-0.414,1.134-1.267,1.92-1.68
			c1.294-0.094,0.782,1.618,1.92,1.68c2.549,0.388,1.49-2.83,2.4-4.08C139.93,104.4,140.411,104.4,140.89,104.4z"/>
		<path fill-rule="evenodd" clip-rule="evenodd" d="M93.61,107.52c0,0.64,0,1.28,0,1.92C92.651,109.509,93.173,107.583,93.61,107.52
			z"/>
		<path fill-rule="evenodd" clip-rule="evenodd" d="M86.411,118.08c-2.619-2.192,1.899-7.961,2.16-6.72
			C86.769,112.452,85.554,115.095,86.411,118.08z"/>
		<path fill-rule="evenodd" clip-rule="evenodd" d="M86.65,118.32c1.047,2.153,2.659,3.741,4.08,5.52
			c1.004-0.275,1.355-1.205,2.4-1.439c0.269,0.677-1.692,1.181-2.16,1.92C89.208,122.802,86.986,120.467,86.65,118.32z"/>
		<path fill-rule="evenodd" clip-rule="evenodd" d="M96.97,118.08c0.113,1.556-1.994,2.964-3.12,4.08
			c-0.349-0.106,0.024-0.211,0-0.479C94.934,120.523,96.349,119.699,96.97,118.08z"/>
		<path fill-rule="evenodd" clip-rule="evenodd" d="M94.57,106.8c1.373,1.296,4.292,5.589,2.88,8.88
			C97.918,111.292,95.826,109.464,94.57,106.8z"/>
		<path fill-rule="evenodd" clip-rule="evenodd" d="M125.291,134.4c1.019-0.059,1.292,0.628,2.4,0.479
			c-0.134,3.944-10.683,8.271-11.04,0.721c2.281-0.198,3.829-1.131,6.239-1.2C123.691,134.4,124.491,134.4,125.291,134.4z"/>
		<path fill-rule="evenodd" clip-rule="evenodd" fill="#151515" d="M176.411,164.641c0.699-0.9,1.499-1.701,2.4-2.4
			C178.111,163.141,177.311,163.94,176.411,164.641z"/>
		<path fill-rule="evenodd" clip-rule="evenodd" d="M129.611,166.32c-9.632,6.076-21.481-2.851-22.8-11.76
			c-0.372-2.507-0.329-7.524,1.92-7.681c2.33-0.161,1.673,2.752,3.6,3.36c0.06,0.261,0.478,0.163,0.479,0.48
			c0.809-0.152,2.229,0.309,2.641-0.24c0.319,0,0.64,0,0.96,0c1.603-0.158,3.837,0.316,5.04-0.24c0.24,0,0.479,0,0.72,0
			c1.125-0.155,2.874,0.313,3.6-0.24c0.32,0,0.641,0,0.961,0c0.966-0.153,2.552,0.313,3.119-0.239c0.4,0,0.801,0,1.2,0
			c0.966-0.154,2.552,0.312,3.12-0.24c0.24,0,0.48,0,0.72,0c0,1.76,0,3.52,0,5.28c0.013,4.012-1.231,6.768-2.88,9.119
			C131.11,164.62,130.31,165.42,129.611,166.32z M115.691,153.601c-0.432-0.412-4.543-0.471-3.12,0.239
			c0.12,1.32,1.229,1.651,1.439,2.881c3.653,1.424,6.485,7.835,11.521,6.479c2.982-0.803,2.82-5.808,4.08-8.88
			C125.075,153.977,120.526,153.646,115.691,153.601z"/>
		<path fill-rule="evenodd" clip-rule="evenodd" fill="#151515" d="M129.611,166.32c0.699-0.9,1.499-1.7,2.399-2.4
			C131.311,164.821,130.511,165.621,129.611,166.32z"/>
		<path fill-rule="evenodd" clip-rule="evenodd" fill="#151515" d="M112.331,150.24c0.773,0.347,2.013,0.227,3.12,0.24
			c-0.411,0.549-1.832,0.088-2.641,0.24C112.808,150.403,112.39,150.501,112.331,150.24z"/>
		<path fill-rule="evenodd" clip-rule="evenodd" fill="#AFAFAF" d="M112.571,153.84c-1.423-0.71,2.688-0.651,3.12-0.239
			C114.724,153.754,113.138,153.288,112.571,153.84z"/>
		<path fill-rule="evenodd" clip-rule="evenodd" fill="#FFFFFF" d="M0.25,0c72.64,0,145.28,0,217.92,0c0,71.04,0,142.08,0,213.12
			c-72.72,0-145.44,0-218.16,0c0-70.8,0-141.6,0-212.4C-0.01,0.379-0.029,0.041,0.25,0z M186.97,48.48
			c-0.606-2.748-2.171-4.541-3.359-6.72c-1.075-1.97-1.846-4.243-2.88-5.76c-5.715-8.381-20.991-14.155-34.08-14.88
			c-1.969-0.109-4.135,0.294-6.24,0c-0.994-0.139-1.017-0.597-1.92-0.48c-7.465,1.297-14.284,0.963-21.84,2.4
			c-4.074,0.774-8.571,2.396-12.72,3.6c-4.088,1.186-9.371,3.586-12.96,3.36c-1.475-0.093-2.898-1.067-4.32-1.2
			c-1.786-0.167-3.236,0.125-4.32,0.48c-5.164,1.695-10.191,5.403-14.64,8.64c-4.409,3.208-9.324,7.292-12.96,10.56
			c-0.98,0.78-1.86,1.66-2.64,2.64c-0.9,0.7-1.701,1.5-2.4,2.4c-0.146,0.014-0.284,0.036-0.24,0.24c-2.26,2.06-4.42,4.22-6.48,6.48
			c-1.342,0.978-2.258,2.381-3.6,3.36c-0.631,0.249-0.808,0.952-1.44,1.2c-0.9,0.699-1.7,1.5-2.4,2.4
			c-0.014,0.146-0.036,0.284-0.24,0.24c-0.945,0.896-2.095,1.586-2.64,2.88c-3.26,3.615-7.698,8.864-8.4,15.12
			c-0.159,1.416-0.525,4.058,0,5.76c0.295,0.958,2.365,1.996,2.64,3.36c0.329,1.636-0.839,4.656-1.2,6.96
			c-0.919,5.87-0.687,9.607,0,15.36c0.767,6.425,1.051,9.781,3.84,13.681c0.962,5.518,3.803,9.156,6.72,12.72
			c0.99-0.03,1.502,0.417,2.64,0.24c4.388,6.012,10.696,10.104,18,13.2c0.707-0.334,1.514-0.566,2.4-0.721
			c0.478,0.385,1.005,1.516,1.92,0.721c1.102,2.258,2.092,4.627,3.12,6.96c1.612,5.188,3.799,9.801,6.72,13.68
			c2.081,2.518,5.222,11.048,9.36,11.28c1.51,0.085,2.837-1.61,4.32-1.681c1.878-0.089,5.331,1.735,7.68,2.641
			c2.641,1.017,5.214,2.144,7.44,2.88c10.875,3.6,23.53,2.436,36.48,0.96c6.103-0.695,12.216-1.305,17.76-2.88
			c4.303-1.223,9.016-4.595,13.2-7.2c9.056-5.638,15.483-11.899,21.12-19.68c3.044-4.202,4.636-8.295,6.72-13.92
			c0.458-1.236,1.639-2.256,1.681-3.841c0.028-1.109-0.98-2.677-1.44-4.319c-1.045-3.735-1.114-5.671-3.84-7.44
			c-0.014-0.146-0.036-0.284-0.24-0.24c-0.479-6.892-5.549-8.97-9.6-12.479c-3.054-2.646-6.078-5.08-8.88-7.44
			c-2.194-1.277,1.813-3.447,3.119-4.8c1.74-1.802,2.675-3.289,3.601-4.56c4.962-6.812,8.118-12.968,10.08-22.56
			c0.943-4.612,2.648-9.647,2.64-13.2c-0.012-4.541-1.775-9.07-1.68-14.4C189.137,52.713,188.35,50.3,186.97,48.48z"/>
		<path fill-rule="evenodd" clip-rule="evenodd" fill="#FFFFFF" d="M94.57,106.8c1.256,2.664,3.348,4.492,2.88,8.88
			c0.054,1.014-0.37,1.55-0.48,2.399c-0.621,1.619-2.037,2.443-3.12,3.601c-0.346,0.134-0.586,0.374-0.72,0.72
			c-1.045,0.234-1.396,1.164-2.4,1.439c-1.421-1.778-3.033-3.366-4.08-5.52c0.044-0.204-0.094-0.227-0.24-0.24
			c-0.856-2.985,0.358-5.628,2.16-6.72c1.258-1.063,2.947-1.693,5.04-1.92c0-0.641,0-1.28,0-1.92c0-0.32,0-0.64,0-0.96
			C94.112,106.458,94.246,106.725,94.57,106.8z"/>
		<path fill-rule="evenodd" clip-rule="evenodd" d="M143.771,112.561c0.52,0.04,0.108-0.852,0.239-1.2
			c0.547,0.642,0.236,3.741-0.239,3.36C143.771,114,143.771,113.28,143.771,112.561z"/>
		<path fill-rule="evenodd" clip-rule="evenodd" fill="#FFFFFF" d="M112.571,153.84c0.567-0.552,2.153-0.086,3.12-0.239
			c4.835,0.045,9.384,0.376,13.92,0.72c-1.26,3.072-1.098,8.077-4.08,8.88c-5.035,1.355-7.867-5.056-11.521-6.479
			C113.799,155.491,112.691,155.16,112.571,153.84z"/>
		<path fill-rule="evenodd" clip-rule="evenodd" fill="#AFAFAF" d="M29.53,130.561c1.298,2.099,2.723,5.227,5.76,4.8
			c4.844,5.476,10.515,10.125,18,12.96c1.057-0.455,2.95-0.848,3.6,0.24c0.895-0.146,0.977-1.104,1.92-1.2
			c0.491,3.429,1.616,6.224,2.4,9.36c-0.915,0.795-1.442-0.336-1.92-0.721c-0.886,0.154-1.693,0.387-2.4,0.721
			c-7.304-3.096-13.612-7.188-18-13.2c-1.137,0.177-1.65-0.271-2.64-0.24C33.333,139.717,30.493,136.078,29.53,130.561z"/>
		<path fill-rule="evenodd" clip-rule="evenodd" d="M54.73,48.48c3.636-3.269,8.551-7.353,12.96-10.56
			c4.449-3.236,9.477-6.945,14.64-8.64c1.084-0.356,2.534-0.647,4.32-0.48c1.421,0.133,2.845,1.107,4.32,1.2
			c3.589,0.227,8.873-2.174,12.96-3.36c4.149-1.205,8.646-2.826,12.72-3.6c7.556-1.437,14.375-1.103,21.84-2.4
			c0.903-0.117,0.926,0.341,1.92,0.48c2.105,0.294,4.271-0.109,6.24,0c13.089,0.725,28.365,6.499,34.08,14.88
			c1.034,1.517,1.805,3.79,2.88,5.76c1.188,2.179,2.753,3.972,3.359,6.72c-0.305,4.354,1.656,8.58,1.44,12.72
			c-0.177,3.396-1.646,7.422-2.4,11.04c-2.345,11.251-7.119,21.037-13.199,27.84c-0.98,0.78-1.861,1.66-2.641,2.64
			c-1.197,1.362-3.09,2.03-4.08,3.6c1.867,2.934,4.149,5.451,6.721,7.68c2.802,2.36,5.826,4.794,8.88,7.44
			c4.051,3.51,9.121,5.588,9.6,12.479c-1.493,0.457-4.119,0.393-5.04-0.479c-0.997-0.843-1.85-1.83-2.88-2.641
			c-0.946-1.374-2.291-2.348-3.12-3.84c-1.1-1.3-2.3-2.5-3.6-3.6c-0.08,0-0.16,0-0.24,0c-0.615-0.905-1.452-1.588-2.4-2.16
			c-8.146-4.813-13.257-12.663-14.64-24.24c-0.909-1.571-2.217-2.743-3.84-3.6c-3.112-1.528-6.616-2.664-10.8-3.12
			c-0.806-0.555-2.637-0.084-3.841-0.24c-0.079,0-0.159,0-0.239,0c-1.12,0-2.24,0-3.36,0c-4.159-0.001-7.471-0.849-11.28-1.2
			c-1.046-0.399-3.754-0.399-4.8,0c-3.172,0.428-5.58,1.62-7.92,2.88c-0.567,0.473-2.146-0.067-2.64,0.48
			c-15.671,3.85-27.409,11.632-44.161,14.4c-3.466,6.214-5.585,13.775-6.48,22.56c-0.398,0.414-0.398,2.466,0,2.88
			c-0.176,2.097,0.392,3.449,0.24,5.521c-0.01,1.37,0.092,2.628,0.48,3.6c2.77,16.03,9.898,27.701,18.72,37.681
			c-3.751,4.275-7.461-2.907-9.6-6c-2.352-3.401-4.092-6.695-5.52-9.12c-1.028-2.333-2.019-4.702-3.12-6.96
			c-0.784-3.137-1.909-5.932-2.4-9.36c-0.943,0.097-1.025,1.055-1.92,1.2c-0.649-1.088-2.543-0.695-3.6-0.24
			c-7.485-2.835-13.156-7.484-18-12.96c-3.038,0.427-4.462-2.701-5.76-4.8c-2.789-3.899-3.073-7.256-3.84-13.681
			c-0.687-5.753-0.919-9.49,0-15.36c0.361-2.304,1.529-5.324,1.2-6.96c-0.274-1.364-2.345-2.402-2.64-3.36
			c-0.525-1.702-0.159-4.344,0-5.76c0.702-6.256,5.14-11.505,8.4-15.12c1.051-0.789,1.849-1.831,2.64-2.88
			c0.204,0.044,0.226-0.093,0.24-0.24c0.809-0.071,0.696-1.064,1.44-1.2c0.9-0.699,1.701-1.5,2.4-2.4
			c1.342-0.979,2.258-2.382,3.6-3.36c2.26-2.06,4.42-4.22,6.48-6.48c-0.044-0.204,0.094-0.227,0.24-0.24c0.9-0.699,1.7-1.5,2.4-2.4
			C53.071,50.34,53.951,49.46,54.73,48.48z M58.09,112.8c-3.176-1.713-7.591-5.1-10.8-1.439c-0.851,0.67-1.829,1.212-2.4,2.16
			c-5.556,2.959-4.834,12.299-0.72,16.319c0.699,0.901,1.5,1.701,2.4,2.4c1.906,1.053,4.032,0.021,5.52-0.72
			c1.787,4.453,3.561,8.919,5.52,13.2c-0.297-4.424-1.416-8.024-1.44-12.721c0-1.68,0-3.359,0-5.04
			c0.202-4.918,1.384-8.855,2.16-13.2c0.336-1.603,1.388-2.181,2.16-4.079c0.718-1.767,0.841-3.521,1.44-4.32
			c1.731-2.31,6.777-2.842,10.8-4.08c11.536-3.55,21.635-8.604,32.64-12.24c15.605-5.155,38.216-5.15,51.84,0.48
			c0.237-2.817-1.54-8.641,1.2-8.88c1.952-0.17,3.908,7.209,4.8,9.36c1.785,4.305,3.155,7.386,4.08,10.32
			c8.09-10.472,14.597-20.345,15.84-36.48c2.645-34.321-31.341-42.807-63.36-36.96c-12.149,2.219-24.853,6.268-35.76,10.08
			c-1.551,0.542-4.218,1.74-5.04,1.68c-1.55-0.113-1.975-1.859-3.12-1.92c-6.822,5.093-14.343,10.189-20.88,16.32
			c-5.057,4.743-10.53,8.386-13.68,14.16c-1.17,2.146-1.258,4.05-2.16,7.2c-0.679,2.372-2.19,4.771-3.12,6.96
			c-3.171,7.466-5.733,14.688-6.48,24.24c-0.998,12.764,3.903,22.386,10.8,29.76c4.023,4.302,7.615,8.234,14.64,10.32
			c-1.291-3.59-2.587-7.173-4.56-10.08c-1.897-0.657-3.575-0.455-5.04-0.96c-6.891-2.376-11.827-14.255-6.72-22.32
			c2.462-3.889,8.092-6.985,12.24-7.44C56.285,104.289,58.641,107.912,58.09,112.8z"/>
	</g>
</g>
</svg>
