<?xml version="1.0" encoding="utf-8"?>
<!-- Generator: Adobe Illustrator 12.0.0, SVG Export Plug-In . SVG Version: 6.00 Build 51448)  -->
<!DOCTYPE svg PUBLIC "-//W3C//DTD SVG 1.1//EN" "http://www.w3.org/Graphics/SVG/1.1/DTD/svg11.dtd" [
	<!ENTITY ns_svg "http://www.w3.org/2000/svg">
	<!ENTITY ns_xlink "http://www.w3.org/1999/xlink">
]>
<svg  version="1.1" id="Layer_1" xmlns="&ns_svg;" xmlns:xlink="&ns_xlink;" width="122.889" height="88.8"
	 viewBox="0 0 122.889 88.8" overflow="visible" enable-background="new 0 0 122.889 88.8" xml:space="preserve">
<g>
	<g>
		<path fill="#D47777" d="M34.321,1.2c0.646-0.553,2.313-0.085,3.36-0.24C37.034,1.513,35.366,1.045,34.321,1.2z"/>
		<path fill="#D47777" d="M85.92,0.96c0.967,0.154,2.554-0.312,3.12,0.24C88.075,1.046,86.489,1.512,85.92,0.96z"/>
		<path fill="#DCB1B1" d="M47.281,46.8c0.16-5.6-0.32-11.839,0.24-17.041c0,5.68,0,11.36,0,17.041
			C47.44,46.8,47.36,46.8,47.281,46.8z"/>
		<path fill="#D47777" d="M47.281,46.8c0.08,0,0.16,0,0.24,0c0,2.16,0,4.32,0,6.48C46.962,51.598,47.439,48.882,47.281,46.8z"/>
		<path fill="#D47777" d="M38.4,87.839c-1.125-0.154-2.874,0.314-3.601-0.238C35.925,87.755,37.674,87.287,38.4,87.839z"/>
		<path fill="#D47777" d="M85.441,87.839c0.726-0.553,2.476-0.084,3.6-0.238C88.315,88.154,86.565,87.685,85.441,87.839z"/>
		<path fill="#D3D2D2" d="M49.201,27.12c2.328-1.771,6.335,0.903,9.6,2.64c5.13,2.729,9.154,4.967,14.641,7.68
			c3.192,1.58,7.802,2.984,7.438,6.72c0,0.16,0,0.32,0,0.48c-10.176-6.064-20.99-11.489-31.92-16.8c-0.349-0.106,0.024-0.21,0-0.48
			C49.165,27.404,49.187,27.267,49.201,27.12z"/>
		<path fill="#CA5151" d="M89.041,1.2c20.039-0.999,34.24,3.84,33.84,23.28c0,12.32,0,24.641,0,36.96
			c-0.342,19.657-12.392,27.608-33.84,26.16c-1.124,0.155-2.874-0.313-3.6,0.239c-15.682,0-31.36,0-47.041,0
			c-0.727-0.555-2.476-0.084-3.601-0.239C13.33,88.751,0.525,81.235,0,61.44C0,48.72,0,36,0,23.28
			C-0.086,4.393,14.695,0.375,34.321,1.2c1.045-0.155,2.713,0.313,3.36-0.24c16.563-0.006,31.665-0.005,48.239,0
			C86.489,1.512,88.075,1.046,89.041,1.2z M80.88,44.64c0-0.16,0-0.32,0-0.48c0.362-3.736-4.246-5.141-7.438-6.72
			c-5.486-2.713-9.511-4.951-14.641-7.68c-3.265-1.737-7.271-4.411-9.6-2.64c-0.848,0.592-1.576,1.304-1.68,2.64
			c-0.561,5.2-0.08,11.439-0.24,17.041c0.158,2.082-0.318,4.798,0.24,6.48c0,1.92,0,3.84,0,5.76c0.814,1.266,2.228,1.932,3.84,2.399
			c4.88-1.987,9.905-4.862,15.359-7.681C70.879,51.612,78.607,48.646,80.88,44.64z"/>
		<path fill="#FFFFFF" d="M49.201,27.12c-0.014,0.146-0.036,0.284-0.24,0.24c0.024,0.27-0.349,0.374,0,0.48
			c10.93,5.311,21.744,10.736,31.92,16.8c-2.272,4.006-10.001,6.972-14.159,9.119c-5.455,2.818-10.479,5.693-15.359,7.682
			c-1.612-0.469-3.025-1.135-3.84-2.4c0-1.92,0-3.84,0-5.76c0-2.16,0-4.32,0-6.48c0-5.679,0-11.359,0-17.04
			C47.625,28.424,48.353,27.712,49.201,27.12z"/>
	</g>
</g>
</svg>
